HIERARCHY
ROOT Hips
{
	OFFSET 0.00000 0.00000 0.00000
	CHANNELS 6 Xposition Yposition Zposition Zrotation Yrotation Xrotation 
	JOINT LHipJoint
	{
		OFFSET 0 0 0
		CHANNELS 3 Zrotation Yrotation Xrotation
		JOINT LeftUpLeg
		{
			OFFSET 1.37590 -1.78394 0.89329
			CHANNELS 3 Zrotation Yrotation Xrotation
			JOINT LeftLeg
			{
				OFFSET 2.47928 -6.81178 0.00000
				CHANNELS 3 Zrotation Yrotation Xrotation
				JOINT LeftFoot
				{
					OFFSET 2.63345 -7.23535 0.00000
					CHANNELS 3 Zrotation Yrotation Xrotation
					JOINT LeftToeBase
					{
						OFFSET 0.23938 -0.65768 2.27012
						CHANNELS 3 Zrotation Yrotation Xrotation
						End Site
						{
							OFFSET 0.00000 -0.00000 1.18363
						}
					}
				}
			}
		}
	}
	JOINT RHipJoint
	{
		OFFSET 0 0 0
		CHANNELS 3 Zrotation Yrotation Xrotation
		JOINT RightUpLeg
		{
			OFFSET -1.33617 -1.78394 0.89329
			CHANNELS 3 Zrotation Yrotation Xrotation
			JOINT RightLeg
			{
				OFFSET -2.56922 -7.05888 0.00000
				CHANNELS 3 Zrotation Yrotation Xrotation
				JOINT RightFoot
				{
					OFFSET -2.56568 -7.04915 0.00000
					CHANNELS 3 Zrotation Yrotation Xrotation
					JOINT RightToeBase
					{
						OFFSET -0.27533 -0.75646 2.18105
						CHANNELS 3 Zrotation Yrotation Xrotation
						End Site
						{
							OFFSET -0.00000 -0.00000 1.15233
						}
					}
				}
			}
		}
	}
	JOINT LowerBack
	{
		OFFSET 0 0 0
		CHANNELS 3 Zrotation Yrotation Xrotation
		JOINT Spine
		{
			OFFSET 0.06190 2.15152 -0.00935
			CHANNELS 3 Zrotation Yrotation Xrotation
			JOINT Spine1
			{
				OFFSET 0.06334 2.15332 0.00872
				CHANNELS 3 Zrotation Yrotation Xrotation
				JOINT Neck
				{
					OFFSET 0 0 0
					CHANNELS 3 Zrotation Yrotation Xrotation
					JOINT Neck1
					{
						OFFSET -0.04202 1.66908 0.23524
						CHANNELS 3 Zrotation Yrotation Xrotation
						JOINT Head
						{
							OFFSET 0.07510 1.69357 -0.24440
							CHANNELS 3 Zrotation Yrotation Xrotation
							End Site
							{
								OFFSET 0.02556 1.71719 -0.11000
							}
						}
					}
				}
				JOINT LeftShoulder
				{
					OFFSET 0 0 0
					CHANNELS 3 Zrotation Yrotation Xrotation
					JOINT LeftArm
					{
						OFFSET 3.67168 1.26306 -0.41342
						CHANNELS 3 Zrotation Yrotation Xrotation
						JOINT LeftForeArm
						{
							OFFSET 4.68510 -0.00000 -0.00000
							CHANNELS 3 Zrotation Yrotation Xrotation
							JOINT LeftHand
							{
								OFFSET 3.39626 -0.00000 -0.00000
								CHANNELS 3 Zrotation Yrotation Xrotation
								JOINT LeftFingerBase
								{
									OFFSET 0 0 0
									CHANNELS 3 Zrotation Yrotation Xrotation
									JOINT LeftHandIndex1
									{
										OFFSET 0.48608 -0.00000 -0.00000
										CHANNELS 3 Zrotation Yrotation Xrotation
										End Site
										{
											OFFSET 0.39189 -0.00000 -0.00000
										}
									}
								}
								JOINT LThumb
								{
									OFFSET 0 0 0
									CHANNELS 3 Zrotation Yrotation Xrotation
									End Site
									{
										OFFSET 0.39787 -0.00000 0.39787
									}
								}
							}
						}
					}
				}
				JOINT RightShoulder
				{
					OFFSET 0 0 0
					CHANNELS 3 Zrotation Yrotation Xrotation
					JOINT RightArm
					{
						OFFSET -3.04136 1.42992 -0.76390
						CHANNELS 3 Zrotation Yrotation Xrotation
						JOINT RightForeArm
						{
							OFFSET -5.55576 -0.00000 -0.00000
							CHANNELS 3 Zrotation Yrotation Xrotation
							JOINT RightHand
							{
								OFFSET -3.32774 -0.00000 -0.00000
								CHANNELS 3 Zrotation Yrotation Xrotation
								JOINT RightFingerBase
								{
									OFFSET 0 0 0
									CHANNELS 3 Zrotation Yrotation Xrotation
									JOINT RightHandIndex1
									{
										OFFSET -0.50763 -0.00000 -0.00000
										CHANNELS 3 Zrotation Yrotation Xrotation
										End Site
										{
											OFFSET -0.40926 -0.00000 -0.00000
										}
									}
								}
								JOINT RThumb
								{
									OFFSET 0 0 0
									CHANNELS 3 Zrotation Yrotation Xrotation
									End Site
									{
										OFFSET -0.41551 -0.00000 0.41551
									}
								}
							}
						}
					}
				}
			}
		}
	}
}
MOTION
Frames: 12
Frame Time: 0.0540541
0.00 0.00 0.00 -126.4140 -79.8782 132.3320 0.0000 0.0000 0.0000 -5.8849 -10.0531 -25.5678 0.9878 6.3258 17.7328 -0.1028 5.8743 -3.7566 0.1002 -2.0417 -5.6209 0.0000 0.0000 0.0000 30.1287 2.5808 1.0199 -2.6523 -10.1097 29.3328 -0.3572 -2.4966 -12.4849 -0.0329 1.1704 -3.2178 9.0046 1.6492 -2.7989 3.3710 2.0037 -4.6178 -1.5219 0.6799 -3.0462 -2.0581 0.0236 -16.9070 -5.0457 1.0393 8.1216 -1.1676 0.0346 5.2148 -0.0000 -0.0000 0.0000 -90.4615 5.2313 47.2175 14.0027 -22.7386 -2.8292 -0.0000 -0.0000 32.8772 -2.9868 13.5107 -0.6984 -7.1250 0.0000 -0.0000 -26.7915 41.8077 2.2946 -0.0000 -0.0000 0.0000 57.7734 33.8972 23.5994 -52.5125 53.9599 -28.1935 0.0000 0.0000 5.5714 -29.7849 -34.5753 17.9940 7.1250 -0.0000 -0.0000 4.4942 -68.3843 -2.5245
0.00 0.00 0.00 -139.5560 -81.2350 143.6910 0.0000 0.0000 0.0000 -10.9753 -8.8174 -21.6098 1.3784 7.4294 20.9938 -0.0070 3.4131 -4.5111 0.0110 -0.6779 -1.8628 0.0000 0.0000 0.0000 25.5524 1.8234 -4.7002 -5.8285 -14.2600 44.2894 0.1808 -7.8428 -5.2644 -0.0021 0.2968 -0.8156 6.6760 0.9336 -2.1091 2.7231 1.1596 -4.3609 -0.9243 0.3465 -3.2520 -1.0191 2.4576 -17.3696 -10.4889 4.5016 6.8106 -2.7275 1.3255 5.1285 0.0000 -0.0000 0.0000 -81.3979 -5.3957 69.0813 19.9910 -30.6315 -5.5268 -0.0000 -0.0000 25.7510 -4.8367 12.3732 -1.0387 -7.1250 0.0000 -0.0000 -27.8541 40.6104 3.3121 0.0000 -0.0000 0.0000 62.7170 30.1278 23.3798 -55.2815 54.9156 -30.4462 0.0000 0.0000 6.4315 -32.4950 -33.4214 19.3322 7.1250 -0.0000 -0.0000 -0.1378 -68.0197 0.0762
0.00 0.00 0.00 -156.9650 -83.5924 158.8580 0.0000 0.0000 0.0000 -17.2807 -6.8382 -13.8016 1.5226 7.7915 22.0825 0.1508 0.6917 -7.6215 0.0001 0.0606 0.1664 0.0000 0.0000 0.0000 20.2504 1.4918 -15.6137 -9.8458 -17.3222 58.9718 0.6531 -14.6645 -1.2774 -0.1057 -2.0960 5.7710 3.0745 0.0528 -1.2291 2.0426 0.0557 -3.8634 0.3815 -0.0705 -3.2831 -0.8141 4.4433 -17.4817 -15.3482 7.5817 6.9622 -3.9971 2.3661 5.6180 0.0000 0.0000 0.0000 -61.1614 -28.0290 73.3378 37.0533 -46.2239 -16.2785 -0.0000 -0.0000 14.2009 1.7879 18.3140 0.5620 -7.1250 0.0000 -0.0000 -24.7480 46.6824 -1.0932 0.0000 0.0000 0.0000 66.2711 19.3014 32.2836 -47.4476 51.9127 -24.1502 0.0000 0.0000 6.0140 -21.4910 -34.6316 12.6125 7.1250 -0.0000 -0.0000 15.2419 -65.9641 -7.7917
0.00 0.00 0.00 -167.4960 -84.4826 168.8930 0.0000 0.0000 0.0000 -19.6332 -5.6728 -9.7206 1.3584 7.3774 20.8385 0.2506 -0.2163 -9.3801 0.0001 -0.0744 -0.2045 0.0000 0.0000 0.0000 18.2150 1.8747 -21.1909 -10.3533 -17.6038 60.6628 0.8598 -16.4616 -2.7565 -0.2086 -2.9403 8.1127 1.3769 -0.2546 -0.8565 1.8131 -0.3490 -3.6782 1.1021 -0.2163 -3.2954 -1.0921 5.0775 -17.4487 -17.0408 8.6763 7.1690 -4.3803 2.7025 5.8589 0.0000 0.0000 0.0000 -46.1570 -39.6959 59.4763 48.3174 -52.2939 -24.8366 -0.0000 -0.0000 6.2418 6.6531 23.6090 2.6746 -7.1250 0.0000 -0.0000 -22.9578 52.2401 -4.2763 0.0000 0.0000 0.0000 67.8064 13.2661 38.0537 -40.1469 48.1567 -18.5486 0.0000 0.0000 5.9100 -13.0282 -33.0506 7.1923 7.1250 -0.0000 -0.0000 23.3120 -62.2110 -10.0479
0.00 0.00 0.00 -177.4450 -84.8878 178.8980 0.0000 0.0000 0.0000 -21.1581 -4.6375 -6.7463 1.1777 6.8878 19.3835 0.3271 -0.7420 -10.5668 0.0026 -0.3304 -0.9079 0.0000 0.0000 0.0000 16.8003 2.5404 -25.1610 -9.6005 -17.1790 58.1448 0.9371 -16.8805 -5.0667 -0.2782 -3.3926 9.3739 0.1087 -0.4102 -0.6316 1.6478 -0.5641 -3.6012 1.6482 -0.2845 -3.3299 -1.4699 5.4356 -17.3885 -18.0482 9.3215 7.1796 -4.5748 2.8955 5.9603 -0.0000 0.0000 0.0000 -30.7660 -47.2190 39.6899 55.7966 -55.0816 -30.8681 -0.0000 0.0000 -0.7348 10.5266 27.7462 4.9443 -7.1250 0.0000 -0.0000 -21.7078 56.7794 -6.4772 -0.0000 0.0000 0.0000 69.6623 8.4761 41.9091 -33.6368 43.8138 -13.8610 0.0000 0.0000 6.0472 -7.4020 -30.8420 3.8104 7.1250 -0.0000 -0.0000 27.1881 -58.9042 -9.6883
0.00 0.00 0.00 -186.9510 -85.0101 188.8840 0.0000 0.0000 0.0000 -22.3032 -3.5830 -4.3141 1.0046 6.3780 17.8852 0.3949 -1.1538 -11.5231 0.0120 -0.7085 -1.9470 0.0000 0.0000 0.0000 15.6072 3.4898 -28.2321 -7.9291 -16.0669 52.3071 0.8709 -16.2867 -7.1790 -0.3001 -3.5221 9.7360 -0.9309 -0.4971 -0.5153 1.5023 -0.6937 -3.6095 2.0861 -0.3182 -3.3915 -1.9218 5.6549 -17.2940 -18.7212 9.7237 7.0132 -4.6759 3.0168 5.9554 -0.0000 -0.0000 0.0000 -13.8346 -51.8508 14.5587 59.5860 -56.1986 -33.9969 -0.0000 0.0000 -6.3762 14.3954 30.9781 7.5259 -7.1250 0.0000 -0.0000 -20.0649 60.6422 -7.8341 -0.0000 -0.0000 0.0000 72.3216 4.0532 43.7837 -27.2989 38.4627 -9.6844 0.0000 0.0000 6.3366 -4.1310 -28.9872 2.0046 7.1250 -0.0000 -0.0000 28.9206 -56.5839 -8.7179
0.00 0.00 0.00 -197.2710 -84.9761 200.2120 0.0000 0.0000 0.0000 -23.3358 -2.4577 -2.1267 0.8513 5.8846 16.4499 0.4684 -1.6000 -12.4734 0.0457 -1.3790 -3.7924 0.0000 0.0000 0.0000 14.2926 4.8504 -30.7017 -5.4354 -13.8579 42.6713 0.7096 -14.9521 -8.3731 -0.2597 -3.2784 9.0549 -1.8918 -0.5821 -0.5030 1.3410 -0.8262 -3.7220 2.4641 -0.3556 -3.5010 -2.4547 5.7795 -17.1118 -19.1631 9.9299 6.5956 -4.7110 3.0914 5.8187 -0.0000 -0.0000 0.0000 5.3896 -53.8430 -17.8069 60.6831 -56.4892 -34.9101 -0.0000 0.0000 -9.8231 19.1834 32.9222 10.7076 -7.1250 0.0000 -0.0000 -16.3920 63.6884 -7.5289 -0.0000 -0.0000 0.0000 76.4803 -0.6058 42.1945 -20.4536 31.1850 -5.7644 0.0000 0.0000 7.0358 -2.9913 -28.2376 1.4163 7.1250 -0.0000 -0.0000 29.4487 -55.7051 -8.2498
0.00 0.00 0.00 -207.5330 -85.0848 211.8990 0.0000 0.0000 0.0000 -24.0270 -1.5820 -0.3597 0.7890 5.6702 15.8305 0.5468 -2.1516 -13.3949 0.1588 -2.5676 -7.0772 0.0000 0.0000 0.0000 12.9680 6.5213 -32.0091 -3.0486 -10.7733 31.5191 0.6207 -14.1044 -8.3946 -0.2249 -3.0526 8.4252 -2.4902 -0.7421 -0.5955 1.2011 -1.0581 -3.9507 2.6629 -0.4523 -3.6675 -2.9499 5.7577 -16.7724 -19.2146 9.8434 6.0006 -4.6599 3.0943 5.5461 0.0000 0.0000 0.0000 22.0750 -53.2854 -51.2186 63.1221 -57.0861 -36.9508 -0.0000 0.0000 -9.8636 23.7754 31.2651 12.8787 -7.1250 0.0000 -0.0000 -9.7612 63.2866 -4.3526 0.0000 0.0000 0.0000 81.8298 -4.9326 33.6085 -14.0194 22.7624 -2.8356 0.0000 0.0000 10.5993 -3.5112 -28.2002 1.6609 7.1250 -0.0000 -0.0000 28.9220 -55.7751 -8.1340
0.00 0.00 0.00 -222.9640 -87.5006 229.4050 0.0000 0.0000 0.0000 -22.0898 -1.8703 1.5071 1.5189 7.7824 22.0551 0.5116 -2.4916 -12.8854 1.0929 -6.6437 -18.6639 0.0000 0.0000 0.0000 13.3650 8.5397 -30.2248 -1.1908 -6.9245 19.4920 0.7481 -15.1641 -7.1001 -0.3324 -3.7054 10.2492 -0.9054 -1.0371 -1.0352 1.4136 -1.4373 -4.4574 2.0009 -0.6927 -3.9497 -3.5561 5.0158 -16.0496 -17.5623 8.7651 5.9731 -4.1560 2.7586 5.1889 -0.0000 0.0000 0.0000 30.2591 -55.8835 -83.0936 87.4161 -59.9748 -57.7625 -0.0000 0.0000 -10.5022 24.8980 20.7799 9.3508 -7.1250 0.0000 -0.0000 -3.8107 52.6419 -0.7175 -0.0000 0.0000 0.0000 89.0097 -11.4455 0.0511 -7.0403 11.9856 -0.7400 0.0000 0.0000 33.5877 0.3709 -24.8558 -0.1559 7.1250 -0.0000 -0.0000 30.2484 -52.1635 -5.7684
0.00 0.00 0.00 -138.5270 -89.3858 144.7320 0.0000 0.0000 0.0000 -18.5967 -2.3845 -0.2571 2.9187 10.5623 30.8176 0.2004 -1.0672 -8.1460 1.2525 -7.0952 -19.9977 0.0000 0.0000 0.0000 17.3963 6.3180 -27.7982 -1.3493 -7.3538 20.7679 0.5777 -13.5070 -7.4065 -0.3738 -3.9270 10.8715 1.3622 -0.7550 -1.4049 1.9839 -1.0354 -4.5342 1.3047 -0.5690 -3.8657 -3.6577 4.3430 -16.0847 -16.2836 7.9889 7.0756 -3.8137 2.4183 5.4047 0.0000 -0.0000 0.0000 14.6615 -63.9179 -66.1436 92.8708 -59.9688 -62.4859 -0.0000 0.0000 -9.0084 24.2219 19.8318 8.6779 -7.1250 0.0000 -0.0000 -4.2394 51.5085 -0.6806 0.0000 -0.0000 0.0000 88.5715 -12.6893 -2.5910 -6.7660 11.5334 -0.6841 0.0000 0.0000 36.8310 2.5364 -22.7534 -0.9815 7.1250 -0.0000 -0.0000 30.8991 -49.9989 -4.1599
0.00 0.00 0.00 -85.1357 -88.0142 90.9470 0.0000 0.0000 0.0000 -16.1784 -2.7126 -2.4693 4.1232 12.3226 36.8830 0.0565 0.2930 -4.6038 1.0385 -6.4813 -18.1875 0.0000 0.0000 0.0000 20.2326 4.5692 -25.7683 -1.4386 -7.5831 21.4548 0.4390 -12.1394 -8.1483 -0.3540 -3.8228 10.5787 2.7949 -0.5015 -1.6363 2.4296 -0.6945 -4.5155 0.9538 -0.4460 -3.7349 -3.6414 3.9303 -16.2205 -15.5700 7.5179 7.8534 -3.6381 2.1988 5.6025 0.0000 -0.0000 0.0000 -6.4309 -68.3752 -40.8779 88.7104 -59.9937 -58.8832 -0.0000 0.0000 -5.8082 24.4305 20.8785 9.1960 -7.1250 0.0000 -0.0000 -4.3159 52.6599 -0.8148 0.0000 -0.0000 0.0000 87.4815 -11.8818 -1.7482 -6.9299 11.8037 -0.7172 0.0000 0.0000 36.6562 1.6880 -22.7586 -0.6532 7.1250 -0.0000 -0.0000 30.1456 -50.1345 -4.1480
0.00 0.00 0.00 -79.4433 -86.2907 84.7793 0.0000 0.0000 0.0000 -13.7172 -3.1646 -5.5081 5.5402 13.9675 43.1072 -0.0053 1.5679 -1.5237 0.7505 -5.5335 -15.4368 0.0000 0.0000 0.0000 23.0831 2.8539 -23.1760 -1.4215 -7.5399 21.3250 0.2971 -10.8147 -9.2727 -0.3109 -3.5847 9.9111 4.1954 -0.2731 -1.8344 2.9228 -0.3991 -4.4539 0.6745 -0.3426 -3.5703 -3.5332 3.5321 -16.4496 -14.8376 7.0403 8.6164 -3.4717 1.9824 5.8174 -0.0000 0.0000 0.0000 -37.6098 -68.7377 -4.2154 78.3171 -59.4779 -49.9001 -0.0000 0.0000 -1.2040 24.9546 23.1412 10.3637 -7.1250 0.0000 -0.0000 -4.4701 55.1632 -1.1171 -0.0000 0.0000 0.0000 85.9954 -9.7629 -0.9701 -7.1732 12.2039 -0.7678 0.0000 0.0000 35.9447 -0.8965 -24.0637 0.3656 7.1250 -0.0000 -0.0000 28.5884 -51.6858 -5.0523
